# xmcd
#
# Track frame offsets:
#	150
#	17515
#	33350
#	48569
#	65738
#
# Disc length: 1089 seconds
#
# Revision: 1
# Processed by: cddbd v1.5.2PL0 Copyright (c) Steve Scherf et al.
# Submitted via: audiograbber 1.83.01
#
DISCID=3c043f05
DTITLE=Isac Elliot - Wake Up World [CD2) (The Ellioteer Edition) 
DYEAR=2013
DGENRE=Pop
TTITLE0=Dream Big
TTITLE1=My Favorite Girl (Feat. Redrama)
TTITLE2=Let's Lie (Acoustic Studio Live)
TTITLE3=New Way Home (Acoustic Studio Live)
TTITLE4=Are You Gonna Be My Girl (Acoustic Studio Live)
EXTD=TR.
EXTT0=
EXTT1=
EXTT2=
EXTT3=
EXTT4=
PLAYORDER=
